<?xml version="1.0" encoding="utf-8"?>
<!-- Generator: Adobe Illustrator 16.0.0, SVG Export Plug-In . SVG Version: 6.00 Build 0)  -->
<!DOCTYPE svg PUBLIC "-//W3C//DTD SVG 1.1//EN" "http://www.w3.org/Graphics/SVG/1.1/DTD/svg11.dtd">
<svg version="1.1" id="Calque_1" xmlns="http://www.w3.org/2000/svg" xmlns:xlink="http://www.w3.org/1999/xlink" x="0px" y="0px"
	 width="595.28px" height="258.026px" viewBox="0 0 595.28 258.026" enable-background="new 0 0 595.28 258.026"
	 xml:space="preserve">
<path fill="#3C3C3B" d="M542.305,111.394c-1.757,2.114-3.855,3.848-6.304,5.185c-2.448,1.352-5.059,2.456-7.842,3.319
	c-2.783,0.863-5.581,1.493-8.41,1.873c-2.83,0.389-5.301,0.677-7.431,0.863c-1.011,4.034-1.757,7.975-2.254,11.822
	c-0.515,3.84-0.685,7.298-0.515,10.368c0.142,3.085,0.64,5.675,1.479,7.781c0.831,2.121,2.185,3.466,4.05,4.041
	c2.408,0.771,5.152,0.335,8.199-1.297c3.055-1.633,6.078-3.887,9.071-6.771c2.991-2.891,5.946-6.241,8.846-10.089
	c2.898-3.839,5.494-7.539,7.795-11.098c2.293-3.56,4.267-6.817,5.931-9.801c1.647-2.97,2.744-5.138,3.271-6.482
	c0.763-1.733,1.789-2.883,3.102-3.459c1.313-0.575,2.526-0.762,3.661-0.575c1.136,0.193,2.036,0.816,2.689,1.872
	c0.652,1.057,0.699,2.449,0.141,4.174c-0.514,1.159-1.415,3.412-2.736,6.778c-1.313,3.366-3.101,7.166-5.379,11.387
	c-2.269,4.229-4.936,8.597-8.006,13.112c-3.062,4.516-6.623,8.643-10.664,12.39c-4.042,3.746-8.55,6.87-13.524,9.366
	c-4.975,2.494-10.338,3.746-16.097,3.746c-6.926,0-12.056-2.401-15.383-7.206c-3.342-4.795-5.301-10.851-5.876-18.156
	c-0.575-7.299,0-15.134,1.741-23.489c1.742-8.355,4.306-16.183,7.664-23.489c3.357-7.299,7.259-13.354,11.706-18.157
	c4.446-4.804,9.069-7.206,13.882-7.206c4.602,0,8.519,1.587,11.736,4.758c3.218,3.164,5.581,6.871,7.058,11.091
	c1.468,4.229,2.129,8.557,1.943,12.972C545.679,105.44,544.497,108.899,542.305,111.394z M527.141,85.744
	c-1.406,0.576-3.101,3.023-5.091,7.346c-2.005,4.329-3.996,9.568-5.985,15.708c2.114,0,4.251-0.24,6.42-0.715
	c2.162-0.482,3.801-1.485,4.929-3.032c0.886-1.15,1.554-2.828,1.974-5.037c0.42-2.207,0.606-4.476,0.567-6.777
	c-0.055-2.301-0.334-4.229-0.832-5.768C528.594,85.939,527.941,85.363,527.141,85.744z"/>
<path fill="#3C3C3B" d="M459.044,41.354c0.481-4.608,2.068-7.819,4.758-9.653c2.688-1.819,5.51-2.635,8.472-2.449
	c2.953,0.195,5.44,1.26,7.447,3.171c2.004,1.928,2.564,4.423,1.663,7.493c-0.63,2.309-1.727,6.824-3.296,13.548
	c-1.569,6.723-3.202,14.457-4.89,23.2c-1.688,8.745-3.319,17.824-4.874,27.235c-1.569,9.414-2.828,18.111-3.753,26.085
	c-0.94,7.976-1.346,14.504-1.197,19.596c0.132,5.1,1.166,7.64,3.085,7.64c1.151,0,2.962-2.113,5.426-6.343
	c2.456-4.22,4.983-9.03,7.562-14.41c2.589-5.379,5.014-10.617,7.275-15.708c2.263-5.092,3.771-8.402,4.509-9.941
	c0.551-1.733,1.547-2.884,2.953-3.458c1.392-0.576,2.712-0.724,3.94-0.428c1.213,0.28,2.191,0.957,2.953,2.013
	c0.754,1.057,0.747,2.449,0,4.174c-1.569,3.848-3.668,9.227-6.31,16.144c-2.652,6.918-5.768,13.742-9.359,20.466
	c-3.59,6.724-7.664,12.576-12.226,17.581c-4.562,4.991-9.623,7.494-15.196,7.494c-5.191,0-8.79-2.736-10.804-8.217
	c-2.029-5.48-3.078-12.436-3.14-20.9c-0.07-8.449,0.574-17.861,1.958-28.238c1.368-10.375,2.969-20.511,4.78-30.406
	c1.804-9.894,3.521-18.926,5.153-27.095S458.594,45.591,459.044,41.354z"/>
<path fill="#3C3C3B" d="M190.726,86.662h18.036v76.008h-17.721l-0.929-11.1c-4.318,8.939-16.187,13.253-24.662,13.408
	c-22.505,0.148-39.158-13.719-39.158-40.378c0-26.209,17.422-39.928,39.62-39.78c10.175,0,19.882,4.779,24.2,12.327L190.726,86.662z
	 M145.101,124.6c0,14.48,10.015,23.115,22.505,23.115c29.599,0,29.599-46.084,0-46.084
	C155.116,101.631,145.101,110.104,145.101,124.6z"/>
<path fill="#3C3C3B" d="M282.194,86.662v8.954l-34.989,48.548h35.3v18.506h-63.977v-7.858l36.384-51.026h-33.609V86.662H282.194z"/>
<path fill="#3C3C3B" d="M366.674,67.097v11.256L322.688,139.4h44.383v23.27h-80.438v-9.886l45.749-64.155h-42.259V67.097H366.674z"
	/>
<path fill="#3C3C3B" d="M376.444,110.594c3.444-5.278,8.363-10.828,13.237-16.019c4.865-5.193,10.206-9.841,16.027-13.976
	c5.799-4.135,11.473-6.871,16.999-8.215c4.702-0.957,8.596-0.91,11.658,0.147c3.055,1.049,5.364,2.838,6.934,5.325
	c1.562,2.51,2.456,5.433,2.682,8.791c0.218,3.366-0.148,6.871-1.111,10.525c-0.94,3.458-2.775,7.166-5.487,11.098
	c-2.729,3.941-5.768,7.781-9.141,11.527c-3.374,3.747-6.91,7.252-10.617,10.517c-3.709,3.265-7.003,5.868-9.896,7.781
	c2.005,0.963,3.918,2.02,5.721,3.178c1.804,1.143,3.498,2.301,5.114,3.459c3.561-0.964,7.066-1.445,10.525-1.445
	c1.725,0,3.023,0.428,3.901,1.298c0.87,0.863,1.243,1.865,1.119,3.022c-0.116,1.159-0.607,2.162-1.478,3.025
	c-0.854,0.87-2.052,1.298-3.59,1.298c-0.762,0-1.446,0.054-2.038,0.146c-0.581,0.101-1.165,0.141-1.74,0.141
	c3.685,5.191,5.581,10.904,5.697,17.153c0.102,6.234-0.979,12.398-3.241,18.444c-2.27,6.048-5.558,11.768-9.871,17.146
	c-4.306,5.38-9.062,9.895-14.248,13.54c-5.183,3.653-10.64,6.155-16.353,7.501c-5.713,1.345-11.161,1.049-16.33-0.863
	c-4.998-1.927-7.539-6.017-7.648-12.25c-0.109-6.248,1.57-13.166,5.06-20.752c3.49-7.595,8.41-15.181,14.783-22.767
	c6.366-7.594,13.447-13.695,21.243-18.304c-2.237-2.495-5.722-4.229-10.416-5.192c-3.03-0.373-5.06-1.197-6.085-2.449
	c-1.018-1.242-1.393-2.682-1.127-4.321c0.264-1.632,1.08-3.404,2.433-5.332c1.352-1.911,2.992-3.839,4.929-5.759
	c1.935-1.919,4.811-5.146,8.649-9.662c3.833-4.508,7.54-9.117,11.116-13.826c3.559-4.711,6.466-8.985,8.696-12.826
	c2.216-3.846,2.604-6.062,1.128-6.637c-1.462-0.762-4.167,0.295-8.115,3.179c-3.949,2.875-8.138,6.528-12.537,10.952
	c-4.406,4.422-8.496,9.078-12.273,13.975c-3.793,4.897-6.248,9.079-7.368,12.529c-0.567,1.733-5.076,2.433-6.941,1.562
	c-2.027-0.941-3.987-2.83-4.477-4.354L376.444,110.594z M378.816,213.037c3.264,0,6.824-1.928,10.694-5.768
	c3.854-3.847,7.33-8.503,10.4-13.975c3.078-5.48,5.455-11.34,7.182-17.59c1.709-6.242,2.059-11.861,1.05-16.859
	c-6.196,4.034-11.676,9.126-16.448,15.274c-4.78,6.147-8.572,12.109-11.387,17.869c-2.813,5.768-4.446,10.719-4.881,14.845
	C375,210.961,376.118,213.037,378.816,213.037z"/>
<path fill="#3C3C3B" d="M376.444,110.594c0,0-6.716,5.597-4.477,12.311"/>
<path fill="#3C3C3B" d="M99.468,86.561h18.035v76.008H99.782l-0.928-11.099c-4.317,8.938-16.186,13.252-24.663,13.407
	c-22.505,0.147-39.158-13.719-39.158-40.379c0-26.208,17.422-39.927,39.621-39.78c10.174,0,19.883,4.78,24.2,12.327L99.468,86.561z
	 M53.842,124.499c0,14.481,10.015,23.116,22.506,23.116c29.598,0,29.598-46.084,0-46.084
	C63.857,101.53,53.842,110.002,53.842,124.499z"/>
<rect x="99.161" y="39.023" fill="#3C3C3B" width="18.343" height="50.071"/>
<rect x="168.897" y="567.678" fill="#3C3C3B" width="66" height="65.999"/>
<path fill="#FFFFFF" d="M202.066,603.723c-1.426-1.531-2.868-3.086-4.181-4.685l-1.027-1.213c-1.45-1.812-2.849-3.67-4.153-5.56
	l-12.073,11.271c-5.152,4.818-5.551,12.898-0.986,18.196c0.112,0.137,0.233,0.27,0.354,0.402l0,0
	c2.144,2.296,4.932,3.642,7.832,4.036c3.786,0.516,7.771-0.607,10.764-3.407l8.705-8.138l1.007-0.813l2.341-2.059c0,0,0,0,0-0.004
	C207.622,609.254,204.758,606.599,202.066,603.723z"/>
<path fill="#6DC1AB" d="M200.898,596.013c1.313,1.595,2.683,3.158,4.117,4.688c2.683,2.872,5.526,5.527,8.438,8.033l0,0l0.83-0.782
	l0.862-0.802l9.261-8.652c2.748-2.574,4.146-6.07,4.153-9.584c0.004-3.23-1.128-6.445-3.524-9.007l0,0
	c-0.303-0.322-0.669-0.677-1.027-0.975c-5.003-4.327-12.637-4.278-17.575,0.347l-10.663,9.957c1.305,1.894,2.687,3.747,4.137,5.56
	L200.898,596.013z"/>
<path fill="#3C3C3B" d="M417.558,615.228c-0.597,0.726-1.313,1.313-2.151,1.772c-0.83,0.459-1.725,0.838-2.675,1.128
	c-0.943,0.298-1.901,0.512-2.868,0.645c-0.959,0.129-1.805,0.226-2.53,0.29c-0.346,1.378-0.604,2.723-0.773,4.036
	c-0.169,1.306-0.233,2.489-0.169,3.537c0.048,1.052,0.21,1.934,0.499,2.654c0.282,0.722,0.742,1.181,1.378,1.378
	c0.822,0.262,1.765,0.113,2.796-0.443c1.047-0.556,2.078-1.325,3.102-2.308c1.016-0.987,2.03-2.132,3.021-3.444
	c0.982-1.31,1.869-2.574,2.65-3.783c0.781-1.216,1.459-2.328,2.022-3.347c0.563-1.012,0.942-1.753,1.12-2.212
	c0.266-0.588,0.612-0.982,1.055-1.181c0.451-0.197,0.871-0.262,1.258-0.197c0.387,0.068,0.692,0.282,0.91,0.641
	c0.226,0.358,0.241,0.834,0.048,1.422c-0.169,0.396-0.483,1.169-0.927,2.312c-0.451,1.152-1.062,2.449-1.836,3.888
	c-0.773,1.441-1.685,2.932-2.731,4.475c-1.048,1.539-2.265,2.949-3.642,4.227c-1.378,1.276-2.917,2.34-4.617,3.194
	c-1.691,0.854-3.521,1.28-5.486,1.28c-2.368,0-4.117-0.821-5.253-2.461c-1.136-1.636-1.805-3.702-1.998-6.191
	c-0.201-2.489,0-5.164,0.589-8.017c0.596-2.852,1.474-5.519,2.618-8.012c1.144-2.494,2.474-4.557,3.996-6.196
	c1.515-1.639,3.094-2.461,4.729-2.461c1.57,0,2.908,0.544,4.004,1.627c1.104,1.08,1.909,2.345,2.408,3.783
	c0.508,1.442,0.726,2.92,0.669,4.427C418.709,613.198,418.307,614.378,417.558,615.228z M412.385,606.479
	c-0.476,0.197-1.056,1.031-1.732,2.505c-0.685,1.479-1.361,3.263-2.046,5.358c0.725,0,1.45-0.081,2.191-0.242
	c0.732-0.165,1.297-0.508,1.684-1.035c0.298-0.391,0.523-0.963,0.669-1.721c0.145-0.749,0.209-1.522,0.193-2.308
	c-0.017-0.786-0.113-1.446-0.282-1.97C412.884,606.543,412.659,606.35,412.385,606.479z"/>
<path fill="#3C3C3B" d="M389.153,591.333c0.165-1.571,0.705-2.667,1.623-3.292c0.919-0.62,1.878-0.897,2.893-0.833
	c1.008,0.064,1.854,0.427,2.538,1.079c0.685,0.661,0.878,1.511,0.563,2.558c-0.209,0.786-0.58,2.324-1.119,4.621
	c-0.54,2.296-1.096,4.931-1.668,7.915c-0.58,2.985-1.136,6.083-1.668,9.294c-0.531,3.21-0.959,6.179-1.272,8.898
	c-0.322,2.719-0.46,4.95-0.411,6.683c0.049,1.74,0.398,2.61,1.056,2.61c0.387,0,1.007-0.721,1.845-2.167
	c0.838-1.438,1.7-3.078,2.586-4.915c0.879-1.837,1.708-3.621,2.481-5.357c0.773-1.74,1.289-2.868,1.539-3.392
	c0.186-0.592,0.523-0.983,1.007-1.181c0.468-0.197,0.927-0.245,1.346-0.148c0.411,0.097,0.741,0.33,1.007,0.688
	c0.258,0.358,0.25,0.834,0,1.422c-0.54,1.313-1.257,3.15-2.159,5.511s-1.966,4.689-3.19,6.981s-2.61,4.29-4.173,5.998
	c-1.555,1.704-3.279,2.558-5.181,2.558c-1.772,0-3.001-0.935-3.689-2.804c-0.693-1.869-1.048-4.241-1.067-7.13
	c-0.024-2.88,0.197-6.095,0.668-9.632c0.468-3.545,1.012-7.001,1.632-10.377c0.612-3.376,1.2-6.457,1.756-9.245
	C388.649,594.893,389,592.782,389.153,591.333z"/>
<path fill="#3C3C3B" d="M297.61,606.792h6.155v25.931h-6.043l-0.322-3.787c-1.47,3.05-5.519,4.524-8.411,4.572
	c-7.678,0.057-13.357-4.677-13.357-13.772c0-8.943,5.941-13.624,13.515-13.571c3.469,0,6.784,1.627,8.254,4.205L297.61,606.792z
	 M282.045,619.736c0,4.942,3.416,7.883,7.678,7.883c10.099,0,10.099-15.718,0-15.718
	C285.461,611.901,282.045,614.789,282.045,619.736z"/>
<path fill="#3C3C3B" d="M328.821,606.792v3.054l-11.939,16.564h12.044v6.312h-21.825v-2.679l12.411-17.411h-11.468v-5.841H328.821z"
	/>
<path fill="#3C3C3B" d="M357.64,600.118v3.839l-15.005,20.826h15.143v7.94h-27.441v-3.372l15.605-21.89h-14.421v-7.344H357.64z"/>
<path fill="#3C3C3B" d="M360.976,614.958c1.176-1.801,2.852-3.694,4.516-5.467c1.66-1.772,3.48-3.359,5.467-4.77
	c1.981-1.41,3.915-2.345,5.801-2.804c1.603-0.322,2.933-0.307,3.979,0.053c1.039,0.358,1.825,0.971,2.36,1.816
	c0.532,0.854,0.838,1.854,0.915,2.997c0.076,1.152-0.045,2.345-0.375,3.593c-0.322,1.177-0.95,2.445-1.873,3.787
	c-0.935,1.346-1.97,2.65-3.118,3.932c-1.152,1.281-2.356,2.474-3.621,3.589c-1.27,1.116-2.393,2.002-3.376,2.655
	c0.681,0.33,1.333,0.685,1.95,1.083c0.612,0.391,1.192,0.786,1.744,1.181c1.212-0.33,2.413-0.491,3.589-0.491
	c0.593,0,1.031,0.145,1.329,0.442c0.299,0.29,0.428,0.637,0.387,1.031c-0.04,0.396-0.209,0.733-0.507,1.031
	c-0.29,0.295-0.701,0.443-1.225,0.443c-0.258,0-0.492,0.017-0.693,0.049c-0.197,0.032-0.398,0.048-0.596,0.048
	c1.257,1.772,1.905,3.723,1.941,5.85c0.04,2.127-0.33,4.229-1.104,6.292c-0.773,2.066-1.894,4.016-3.368,5.854
	c-1.466,1.832-3.094,3.371-4.858,4.62c-1.769,1.245-3.633,2.099-5.583,2.558c-1.945,0.459-3.803,0.358-5.567-0.294
	c-1.708-0.66-2.573-2.055-2.61-4.182c-0.04-2.131,0.536-4.491,1.725-7.081c1.192-2.587,2.872-5.177,5.043-7.767
	c2.176-2.587,4.593-4.673,7.251-6.244c-0.765-0.851-1.957-1.442-3.553-1.772c-1.035-0.125-1.724-0.407-2.078-0.834
	c-0.347-0.423-0.476-0.914-0.383-1.475c0.093-0.556,0.366-1.16,0.829-1.816c0.46-0.652,1.02-1.313,1.681-1.966
	c0.66-0.657,1.64-1.757,2.952-3.295c1.31-1.539,2.57-3.11,3.791-4.722c1.213-1.604,2.207-3.062,2.969-4.375
	c0.753-1.312,0.887-2.066,0.383-2.264c-0.5-0.258-1.418,0.101-2.768,1.088c-1.35,0.979-2.775,2.224-4.278,3.734
	c-1.502,1.511-2.896,3.098-4.186,4.766c-1.297,1.672-2.135,3.102-2.514,4.277c-0.193,0.589-1.731,0.83-2.368,0.532
	c-0.693-0.322-1.361-0.967-1.531-1.486L360.976,614.958z M361.781,649.904c1.111,0,2.328-0.652,3.649-1.966
	c1.317-1.313,2.502-2.9,3.549-4.766c1.052-1.873,1.865-3.871,2.449-6.002s0.705-4.049,0.358-5.753
	c-2.11,1.378-3.983,3.114-5.607,5.209c-1.635,2.103-2.924,4.133-3.891,6.099c-0.959,1.966-1.515,3.658-1.66,5.067
	C360.484,649.199,360.862,649.904,361.781,649.904z"/>
<path fill="#3C3C3B" d="M360.976,614.958c0,0-2.292,1.905-1.531,4.197"/>
<path fill="#3C3C3B" d="M266.479,606.756h6.151v25.931h-6.047l-0.314-3.787c-1.474,3.054-5.522,4.524-8.415,4.576
	c-7.678,0.049-13.361-4.681-13.361-13.776c0-8.943,5.945-13.624,13.519-13.567c3.473,0,6.784,1.627,8.258,4.201L266.479,606.756z
	 M250.914,619.7c0,4.938,3.416,7.887,7.678,7.887c10.095,0,10.095-15.722,0-15.722C254.33,611.865,250.914,614.752,250.914,619.7z"
	/>
<rect x="266.375" y="590.542" fill="#3C3C3B" width="6.256" height="17.08"/>
</svg>
